<?xml version="1.0" standalone="no"?>
<!DOCTYPE svg PUBLIC "-//W3C//DTD SVG 20010904//EN"
 "http://www.w3.org/TR/2001/REC-SVG-20010904/DTD/svg10.dtd">
<svg version="1.0" xmlns="http://www.w3.org/2000/svg"
 width="666.000000pt" height="666.000000pt" viewBox="0 0 666.000000 666.000000"
 preserveAspectRatio="xMidYMid meet">
<metadata>
Created by potrace 1.11, written by Peter Selinger 2001-2013
</metadata>
<g transform="translate(0.000000,666.000000) scale(0.100000,-0.100000)"
fill="#000000" stroke="none">
<path d="M3310 5138 c0 -10 -3 -17 -7 -17 -22 4 -33 -2 -27 -13 5 -10 4 -10
-6 -1 -9 9 -19 4 -43 -20 -19 -19 -32 -27 -35 -19 -2 7 -8 12 -13 12 -6 0 -7
-6 -3 -12 6 -10 5 -10 -7 -1 -12 10 -18 9 -28 -6 -9 -12 -21 -16 -34 -13 -13
3 -18 1 -13 -6 4 -8 2 -10 -8 -6 -8 3 -24 -4 -35 -15 -12 -12 -16 -21 -10 -21
5 0 8 -4 5 -9 -3 -4 3 -19 14 -31 11 -12 17 -28 13 -34 -3 -6 -3 -8 2 -4 14
13 32 -24 28 -59 -3 -26 -1 -33 9 -27 9 6 9 3 -1 -9 -12 -15 -11 -17 3 -17 10
0 14 -4 11 -10 -3 -5 -2 -10 3 -10 5 0 8 -12 7 -27 -1 -23 -6 -29 -29 -31 -18
-2 -26 0 -21 7 3 6 -1 11 -10 11 -10 0 -15 6 -12 13 10 26 -43 6 -58 -22 -8
-14 -14 -22 -15 -17 0 5 -7 2 -17 -5 -13 -11 -17 -11 -20 -1 -3 6 -14 12 -25
12 -17 0 -18 3 -8 15 7 8 17 12 23 8 6 -4 7 -1 1 8 -14 22 -15 47 -2 55 6 4 8
3 4 -4 -3 -6 -1 -14 5 -18 7 -4 9 -3 5 4 -3 6 -2 14 4 17 8 5 7 11 -1 21 -10
12 -9 13 4 8 13 -5 15 -1 11 18 -3 12 -6 28 -6 34 -1 12 -14 14 -75 14 -29 -1
-43 3 -43 12 0 9 -3 9 -10 -2 -7 -11 -10 -12 -10 -2 0 8 -6 12 -12 9 -7 -2
-12 -10 -10 -17 2 -8 -3 -10 -13 -6 -9 3 -13 2 -10 -3 3 -5 2 -12 -3 -15 -5
-3 -17 9 -27 27 -16 28 -17 30 -2 18 15 -12 17 -12 11 3 -3 9 -11 16 -16 16
-6 0 -5 7 2 15 11 13 10 14 -5 9 -15 -6 -17 -3 -13 14 4 15 2 19 -8 15 -8 -3
-14 0 -14 7 0 6 -4 8 -10 5 -5 -3 -10 -1 -10 6 0 8 -4 8 -12 2 -7 -6 -27 -9
-44 -8 -21 1 -30 -3 -28 -10 6 -15 -22 -39 -36 -30 -5 3 -10 2 -10 -4 0 -6 -8
-8 -17 -4 -10 3 -15 3 -11 -1 8 -10 -14 -36 -24 -29 -4 2 -5 -2 -2 -10 3 -8
-5 -23 -18 -33 -23 -19 -36 -84 -16 -84 5 0 6 -6 2 -12 -5 -8 0 -7 11 2 10 8
16 10 13 5 -4 -6 2 -16 12 -23 14 -9 21 -9 26 0 5 7 3 8 -6 3 -9 -5 -11 -4 -6
4 6 9 11 9 22 0 8 -6 14 -8 14 -5 0 4 9 -2 21 -13 l21 -20 -22 -23 c-15 -15
-24 -19 -27 -11 -2 7 -10 10 -18 7 -8 -3 -11 -12 -8 -20 3 -8 -1 -14 -11 -14
-9 0 -16 -7 -16 -16 0 -8 -3 -13 -7 -11 -5 3 -14 -1 -21 -9 -12 -13 -8 -18 13
-15 6 1 1 -5 -9 -14 -19 -14 -18 -15 5 -24 18 -7 20 -10 6 -10 -10 -1 -16 -5
-12 -11 3 -5 12 -7 20 -3 9 3 15 -1 15 -8 0 -11 3 -11 10 1 8 13 10 12 10 -2
0 -10 6 -18 13 -18 8 0 9 -3 1 -8 -6 -4 -10 -15 -8 -25 1 -9 -1 -15 -6 -12 -5
3 -21 0 -36 -5 -22 -9 -25 -8 -16 2 8 11 3 13 -25 13 -23 0 -39 -7 -49 -20
-17 -23 -69 -32 -61 -10 8 20 -3 26 -26 14 -15 -9 -18 -8 -12 2 6 9 2 11 -13
7 -12 -4 -20 -3 -18 1 6 10 -30 41 -47 41 -7 0 -19 -6 -26 -12 -11 -11 -12
-10 -6 2 8 13 7 13 -8 1 -11 -9 -17 -10 -17 -2 0 6 -9 11 -19 11 -11 0 -21 6
-24 13 -3 9 -7 9 -20 -1 -9 -8 -21 -11 -27 -7 -5 3 -10 2 -10 -4 0 -6 -19 -19
-42 -30 -49 -22 -88 -53 -88 -70 0 -6 -5 -11 -11 -11 -5 0 -7 -4 -4 -10 3 -5
1 -10 -6 -10 -9 0 -9 -3 0 -14 9 -10 9 -16 1 -21 -6 -4 -9 -13 -6 -20 3 -8 0
-15 -6 -17 -7 -3 -5 -10 4 -19 9 -8 19 -30 23 -48 5 -25 10 -30 16 -20 8 12
11 12 19 -1 8 -12 10 -12 10 -1 0 11 3 11 17 0 9 -8 14 -9 10 -3 -3 6 0 11 8
11 8 0 11 -5 8 -10 -4 -6 3 -8 16 -4 15 3 24 0 28 -9 3 -8 15 -14 27 -13 35 2
39 0 25 -18 -8 -9 -9 -14 -3 -10 7 4 15 0 18 -9 4 -12 2 -15 -9 -10 -8 3 -15
3 -15 0 0 -2 10 -9 23 -14 20 -8 20 -9 2 -10 -17 0 -17 -2 -5 -10 9 -6 11 -10
3 -10 -7 0 -10 -7 -6 -17 4 -11 3 -14 -5 -9 -8 5 -10 2 -6 -8 3 -9 11 -13 16
-10 6 4 3 -5 -6 -19 -13 -20 -14 -26 -4 -30 10 -4 10 -7 -1 -15 -7 -5 -11 -14
-8 -19 11 -18 -53 -6 -67 12 -7 10 -18 15 -24 11 -7 -4 -12 -1 -12 8 0 10 -6
13 -15 10 -13 -6 -20 6 -16 29 0 4 -6 7 -15 7 -12 0 -15 7 -12 30 3 22 1 30
-11 31 -12 0 -11 3 4 9 l20 9 -20 0 c-12 1 -16 4 -9 9 9 5 9 10 0 17 -14 13
-56 15 -56 4 0 -5 -6 -9 -13 -9 -17 0 -58 -46 -49 -55 4 -3 -1 -3 -11 1 -11 4
-19 0 -23 -10 -3 -9 -10 -14 -14 -11 -4 3 -10 -2 -14 -10 -3 -8 0 -17 6 -21 7
-5 5 -11 -6 -20 -10 -7 -17 -15 -17 -18 3 -20 0 -26 -8 -21 -26 15 -31 -66 -7
-104 6 -10 5 -12 -2 -7 -7 4 -12 1 -12 -8 0 -14 18 -21 43 -17 4 0 7 -4 7 -10
0 -7 11 -4 26 6 15 9 23 12 20 6 -4 -6 -2 -11 3 -11 6 0 11 6 11 13 0 8 3 7
10 -3 5 -8 12 -11 16 -7 4 4 13 2 21 -4 7 -6 13 -9 13 -5 0 4 13 0 29 -9 20
-10 32 -11 36 -4 5 7 11 6 21 -2 11 -9 14 -8 14 2 0 11 2 11 10 -1 7 -11 10
-11 10 -2 0 8 8 6 22 -7 16 -16 25 -18 35 -9 11 9 12 7 7 -7 -6 -14 -4 -16 7
-11 8 4 5 -1 -6 -11 -11 -10 -31 -29 -44 -43 -13 -14 -20 -18 -15 -10 4 8 -11
0 -34 -18 -23 -19 -42 -36 -42 -39 0 -3 7 0 15 7 10 9 15 9 15 1 0 -6 -5 -11
-11 -11 -5 0 -7 -6 -3 -12 6 -10 5 -10 -8 -1 -8 7 -19 9 -23 5 -5 -4 -5 -2 -1
5 8 14 -44 73 -63 73 -7 0 -20 7 -28 16 -10 10 -18 12 -22 5 -9 -13 -57 11
-53 27 1 7 -3 12 -9 12 -5 0 -9 10 -7 23 2 16 -2 22 -14 21 -10 -1 -16 2 -13
6 7 11 -24 22 -37 13 -7 -4 -8 -1 -3 8 7 11 5 11 -11 -1 -36 -27 -72 -69 -65
-77 3 -4 -3 -1 -14 7 -11 8 -17 11 -13 6 4 -5 1 -15 -7 -22 -8 -8 -11 -22 -8
-31 4 -11 3 -14 -5 -9 -8 5 -10 2 -6 -8 4 -10 1 -16 -7 -16 -7 0 -9 -3 -6 -7
4 -3 2 -12 -4 -20 -9 -10 -8 -13 1 -13 9 0 9 -4 2 -13 -7 -8 -6 -18 4 -31 7
-10 11 -22 9 -27 -3 -4 -1 -10 5 -14 5 -3 10 -15 10 -26 0 -11 5 -17 10 -14 6
3 10 2 10 -3 0 -18 38 -21 45 -4 5 14 7 14 15 2 8 -13 10 -12 10 3 0 10 5 15
10 12 6 -3 10 0 10 7 0 9 3 9 10 -2 9 -13 10 -13 10 0 0 13 1 13 10 0 5 -8 10
-10 10 -3 0 6 16 11 36 11 20 0 40 6 45 14 6 9 9 10 9 0 0 -14 21 -12 32 3 4
6 8 2 8 -9 0 -15 3 -16 15 -6 13 11 14 10 9 -4 -3 -9 -1 -16 6 -16 6 0 8 -4 5
-10 -3 -5 -2 -10 4 -10 5 0 8 -8 7 -17 -4 -23 16 -45 26 -29 5 7 8 5 8 -6 0
-10 5 -18 11 -18 5 0 7 -5 4 -10 -4 -6 -12 -7 -18 -3 -7 4 -6 0 2 -10 12 -15
9 -21 -10 -19 -4 1 -5 -8 -2 -18 4 -14 0 -20 -11 -20 -10 0 -14 -5 -11 -10 4
-6 3 -10 -2 -9 -27 5 -32 -2 -22 -25 7 -14 17 -22 25 -19 8 3 14 0 14 -7 0 -6
5 -8 12 -4 7 5 8 3 2 -7 -5 -8 -7 -22 -6 -31 2 -10 -2 -18 -8 -18 -6 0 -8 -4
-5 -10 6 -10 -15 -14 -44 -11 -7 2 -11 -1 -8 -6 3 -5 -3 -9 -13 -9 -10 0 -17
3 -14 7 6 10 -17 17 -49 13 -15 -1 -25 1 -23 5 3 4 -5 22 -17 39 -17 22 -27
28 -37 22 -9 -5 -19 -5 -27 2 -9 7 -17 5 -28 -6 -9 -9 -13 -16 -8 -16 4 0 0
-5 -10 -11 -15 -9 -16 -13 -5 -27 11 -13 11 -15 -4 -9 -10 3 -18 2 -18 -4 0
-6 -6 -7 -12 -3 -9 5 -9 2 1 -9 11 -13 11 -17 1 -17 -8 0 -10 -3 -7 -7 4 -3 1
-13 -6 -21 -10 -13 -9 -14 3 -7 13 8 13 6 2 -8 -8 -9 -10 -22 -6 -29 11 -16
11 -39 3 -58 -7 -16 14 -43 25 -32 4 3 4 -1 0 -11 -4 -12 -1 -17 11 -17 9 0
13 -5 9 -11 -4 -7 1 -7 16 1 15 8 20 8 16 1 -4 -7 1 -11 13 -11 12 0 21 -4 21
-10 0 -5 7 -10 15 -10 11 0 12 -5 6 -22 -5 -13 -14 -22 -20 -21 -6 2 -8 -4 -5
-12 4 -8 1 -15 -5 -15 -6 0 -11 -9 -11 -21 0 -12 -4 -17 -11 -13 -7 4 -7 -1 1
-16 9 -18 9 -24 0 -30 -8 -5 -9 -10 -2 -14 6 -4 9 -16 7 -27 -2 -11 2 -22 11
-26 12 -4 12 -8 2 -21 -10 -12 -10 -14 0 -8 8 5 12 -1 12 -19 0 -20 4 -26 14
-22 11 4 13 1 9 -10 -4 -10 -2 -14 4 -10 7 5 10 -9 9 -41 -1 -30 4 -54 14 -66
8 -11 9 -16 3 -12 -17 9 -16 1 2 -33 8 -16 11 -32 7 -35 -3 -4 2 -4 12 0 13 5
17 4 13 -3 -4 -6 0 -14 9 -17 9 -4 14 -9 11 -12 -9 -9 30 -47 41 -40 5 3 15
-6 22 -20 8 -13 20 -22 27 -20 7 3 15 1 17 -3 3 -5 17 -6 31 -4 13 3 22 9 19
14 -3 5 1 9 8 9 10 0 10 2 0 9 -21 13 7 53 31 47 13 -3 17 0 13 10 -10 25 3
15 18 -15 9 -16 12 -31 9 -35 -4 -3 -1 -6 6 -6 7 0 10 -4 7 -9 -3 -4 4 -17 17
-27 21 -19 21 -19 7 1 -14 18 -13 19 1 7 17 -12 15 -62 -2 -62 -5 0 -8 -3 -8
-7 3 -20 -2 -34 -10 -29 -16 10 -18 -17 -5 -67 7 -26 13 -51 14 -55 1 -4 8 -6
17 -4 9 2 12 -1 8 -7 -3 -6 2 -14 12 -18 10 -4 21 -11 25 -17 5 -7 8 -6 8 3 0
11 4 10 16 -5 8 -10 12 -12 8 -4 -5 8 9 2 30 -14 42 -31 106 -44 106 -20 0 8
5 14 10 14 6 0 10 11 10 25 0 14 -6 25 -12 25 -9 0 -8 4 2 10 12 8 12 10 1 10
-11 0 -11 3 -1 15 10 12 10 15 -1 15 -10 1 -8 4 4 11 9 5 21 8 26 4 5 -3 11 0
13 7 5 13 38 20 38 7 0 -4 7 -6 15 -3 9 4 15 0 15 -10 0 -9 6 -16 13 -16 8 0
7 -4 -3 -10 -10 -6 -11 -10 -3 -10 16 0 11 -42 -6 -48 -9 -3 -9 -7 0 -19 7 -8
8 -13 3 -12 -5 1 -12 0 -16 -1 -5 -1 -14 -3 -20 -4 -7 -1 -11 -8 -9 -16 2 -8
3 -25 3 -37 -1 -14 4 -23 13 -23 8 0 14 -3 13 -7 -2 -5 -1 -8 2 -8 10 0 38
-30 34 -36 -4 -7 57 -35 69 -31 4 1 7 -3 7 -9 0 -5 4 -8 9 -5 4 3 6 -6 3 -19
-2 -14 -9 -25 -14 -25 -5 0 -7 -4 -3 -9 3 -5 1 -12 -5 -16 -14 -9 -13 -55 2
-55 6 0 9 -3 5 -6 -3 -3 5 -16 19 -29 13 -12 24 -26 24 -31 0 -5 9 -15 21 -22
17 -11 20 -11 14 0 -6 10 -5 10 5 1 7 -6 19 -9 27 -6 7 3 13 2 12 -3 -1 -5 -1
-16 0 -24 1 -13 2 -13 11 0 6 10 10 11 10 3 0 -7 5 -13 11 -13 5 0 7 6 3 13
-5 8 -2 8 9 -2 9 -7 17 -9 17 -4 0 6 11 8 24 6 13 -3 37 2 52 11 27 16 27 16
4 10 -24 -6 -24 -5 -6 8 12 10 16 20 11 28 -5 8 -4 11 3 6 8 -4 10 5 8 29 -1
19 1 40 5 47 4 6 3 20 -2 30 -7 12 -6 18 1 18 6 0 9 4 5 9 -3 5 0 13 6 17 8 5
9 3 5 -5 -5 -8 -3 -12 5 -10 28 3 40 -1 33 -13 -5 -7 -2 -9 9 -5 9 3 18 0 21
-9 3 -8 12 -14 21 -14 8 0 15 -6 15 -14 0 -9 7 -13 20 -11 13 3 21 -2 22 -13
2 -33 4 -37 12 -51 6 -10 5 -12 -2 -7 -7 4 -12 2 -12 -4 0 -6 -4 -9 -9 -6 -5
3 -11 -4 -14 -15 -3 -12 -10 -18 -16 -15 -5 4 -12 2 -16 -4 -3 -5 -1 -10 6
-10 8 0 8 -4 -1 -15 -9 -10 -9 -15 -1 -15 6 0 11 -7 11 -16 0 -8 4 -13 8 -10
5 3 15 -4 22 -15 8 -10 20 -19 27 -19 7 0 13 -4 13 -10 0 -5 6 -9 13 -7 6 1
11 -4 9 -11 -2 -10 2 -10 17 -2 13 7 22 7 26 0 4 -6 10 -8 15 -5 5 3 11 1 15
-5 4 -6 11 -7 17 -4 6 4 15 0 20 -7 7 -11 11 -11 15 -1 2 6 13 12 24 12 11 0
30 10 42 21 12 12 15 18 8 14 -9 -5 -6 4 7 22 17 23 19 33 9 43 -9 10 -9 11 1
6 13 -8 13 19 -1 42 -5 7 -3 12 5 12 8 0 9 3 3 8 -14 10 -17 32 -4 32 8 0 8 5
-1 15 -10 12 -10 15 1 15 11 0 11 2 -1 10 -8 5 -12 10 -9 10 4 0 3 17 -2 37
-9 40 5 70 20 44 7 -11 9 -11 14 0 3 9 6 5 6 -7 1 -17 7 -21 30 -20 22 0 27 4
20 13 -7 8 -3 13 13 18 13 5 24 3 26 -4 2 -6 8 -11 13 -11 6 0 7 5 3 12 -5 7
-3 8 5 4 7 -5 10 -14 7 -22 -3 -9 0 -11 12 -7 15 6 15 5 3 -10 -7 -9 -9 -17
-4 -17 5 0 10 -7 10 -15 0 -8 -5 -11 -10 -8 -6 4 -8 0 -4 -10 3 -9 -1 -18 -10
-21 -8 -4 -13 -13 -9 -21 3 -8 1 -15 -5 -15 -6 0 -7 -5 -4 -10 4 -6 1 -18 -7
-27 -7 -9 -8 -14 -2 -10 6 3 11 0 11 -8 0 -8 -4 -12 -8 -9 -4 2 -10 -5 -14
-16 -3 -11 -10 -20 -15 -20 -4 0 -11 -7 -14 -16 -5 -14 -4 -15 9 -4 13 11 14
10 8 -5 -5 -14 -3 -17 10 -12 12 4 14 2 10 -10 -5 -12 -2 -15 10 -10 10 4 16
2 14 -6 -2 -12 86 -39 91 -28 1 4 22 6 47 5 25 -1 48 3 52 9 4 6 1 7 -8 2 -8
-5 -11 -4 -6 0 4 5 19 10 35 12 15 1 33 3 40 4 11 2 16 13 13 31 0 4 6 5 14 2
13 -5 13 -2 2 26 -19 43 -45 72 -59 64 -6 -4 -8 -3 -5 3 4 6 0 16 -9 23 -12
11 -12 15 -2 22 10 6 10 10 -2 18 -12 8 -12 10 -1 10 11 0 11 3 0 17 -8 9 -9
14 -3 10 8 -4 11 2 10 17 0 13 -4 22 -7 20 -4 -2 -9 5 -12 16 -3 11 -1 17 4
14 6 -3 8 11 5 38 -3 23 -2 48 2 53 10 14 32 17 32 4 0 -5 4 -8 9 -5 5 4 11 0
14 -6 3 -10 7 -10 20 1 10 7 17 10 17 7 0 -4 9 -2 20 4 15 8 20 8 20 -2 0 -9
3 -9 10 2 5 8 10 10 10 4 0 -7 11 -9 26 -6 23 4 25 2 19 -18 -5 -15 -4 -20 4
-16 7 4 9 1 5 -8 -3 -8 -11 -14 -17 -12 -7 1 -9 1 -4 -1 4 -3 4 -10 0 -16 -4
-7 0 -8 12 -3 16 6 16 4 4 -11 -9 -11 -10 -14 -1 -9 6 4 12 2 12 -3 0 -6 8
-11 18 -11 13 0 14 -2 3 -9 -8 -5 -10 -14 -6 -21 5 -9 4 -11 -3 -6 -7 4 -12 2
-12 -4 0 -6 -5 -8 -12 -4 -7 5 -9 0 -6 -14 4 -14 2 -19 -6 -16 -20 7 -15 -29
5 -47 10 -9 15 -20 11 -24 -4 -5 -2 -5 5 -1 6 3 14 2 18 -4 4 -7 12 -7 26 0
14 8 19 7 19 -2 0 -6 7 -3 15 8 10 13 13 14 10 3 -4 -10 0 -16 9 -16 8 0 12 5
9 11 -4 6 1 5 10 -3 14 -11 17 -11 17 0 0 10 3 10 12 1 9 -9 16 -8 30 5 11 10
18 11 18 5 0 -7 8 -12 18 -12 11 0 13 -3 5 -8 -8 -5 -3 -11 13 -19 18 -8 24
-8 24 0 0 7 4 6 9 -2 8 -13 12 -13 27 0 15 12 16 12 9 0 -9 -15 -9 -15 59 27
21 13 35 18 31 10 -3 -7 1 -4 9 7 9 11 23 28 31 38 9 10 13 23 9 29 -4 6 -3 9
2 6 5 -3 22 7 37 23 16 16 25 29 22 29 -4 0 1 7 9 16 9 8 13 21 9 27 -4 7 0 8
11 4 9 -4 15 -3 12 1 -3 5 6 20 20 35 26 28 31 42 12 31 -10 -5 -10 -4 -1 6
10 11 8 17 -10 32 -12 11 -34 22 -49 25 -16 3 -28 11 -28 17 0 6 -5 4 -10 -4
-8 -13 -10 -12 -10 3 0 10 -4 15 -10 12 -6 -4 -10 5 -10 20 0 15 -4 24 -10 20
-5 -3 -10 -2 -10 3 0 6 7 13 16 16 8 3 12 11 8 17 -4 7 -3 9 3 6 13 -8 30 12
30 35 0 24 -24 31 -37 10 -8 -12 -10 -12 -7 -2 2 8 -2 23 -11 33 -8 9 -10 17
-5 17 6 0 10 8 9 18 0 9 5 16 12 14 6 -1 11 4 10 10 -2 7 3 12 10 10 11 -2 16
10 13 31 0 4 6 7 15 7 8 0 12 5 9 10 -6 9 7 14 27 11 4 0 5 6 2 14 -4 8 -1 15
6 15 7 0 10 6 7 14 -11 29 39 2 86 -46 26 -27 47 -44 47 -37 0 7 3 9 6 6 4 -4
2 -13 -4 -20 -7 -8 -10 -16 -8 -18 11 -10 12 -89 2 -93 -7 -3 -6 -5 2 -5 6 -1
12 -9 12 -18 0 -9 3 -13 7 -10 3 4 12 -1 19 -11 10 -12 13 -13 14 -3 0 10 3
11 13 2 8 -6 17 -8 20 -5 3 3 12 2 19 -2 22 -14 79 -15 72 -1 -5 8 -3 8 7 0
16 -15 33 -17 24 -3 -3 6 1 7 9 4 9 -3 16 -1 16 5 0 6 5 11 11 11 5 0 7 -6 3
-13 -5 -8 -3 -8 9 2 9 7 14 17 11 22 -3 5 1 6 9 3 9 -3 17 3 20 17 4 15 11 20
22 15 9 -3 14 -2 10 3 -3 5 1 15 8 23 7 7 12 25 12 41 -1 15 2 27 6 27 4 0 6
12 3 26 -4 20 -1 25 9 21 10 -4 13 1 9 19 -2 13 -8 21 -13 18 -5 -3 -6 1 -3 9
6 17 -23 50 -37 42 -5 -4 -9 -1 -9 4 0 6 -7 11 -15 11 -8 0 -15 5 -15 11 0 6
-9 9 -20 6 -12 -3 -17 -1 -14 5 3 5 -3 12 -15 15 -12 3 -21 10 -21 15 0 5 -5
6 -12 2 -8 -5 -9 -2 -5 9 5 13 2 15 -18 7 -20 -7 -23 -6 -18 6 3 8 -3 21 -13
29 -18 13 -18 14 0 34 15 16 21 18 28 9 4 -7 8 -8 8 -2 0 5 -6 16 -12 23 -10
11 -10 13 0 7 6 -4 12 -2 12 4 0 6 5 8 12 4 7 -4 8 -3 4 5 -5 7 5 25 26 44 31
30 41 57 26 72 -11 12 21 37 39 31 8 -4 22 -1 29 5 12 10 13 9 8 -5 -4 -12 0
-16 15 -16 12 0 21 -4 21 -8 0 -5 10 -14 23 -21 12 -6 14 -9 5 -7 -12 3 -15 1
-11 -9 3 -8 10 -12 16 -8 6 4 7 1 2 -7 -4 -7 -2 -16 6 -21 11 -7 11 -9 1 -9
-10 0 -10 -3 0 -14 7 -8 16 -12 21 -9 4 2 7 0 7 -6 0 -14 33 -1 43 16 5 7 13
11 18 7 5 -3 8 0 7 7 -2 7 7 18 19 24 13 7 20 15 15 20 -4 4 1 5 11 2 10 -4
16 -3 12 3 -3 5 4 14 15 20 11 6 18 15 15 20 -3 5 3 13 12 19 11 6 13 11 5 11
-10 0 -10 5 -2 20 6 11 8 25 5 30 -3 6 -1 10 5 10 6 0 8 5 5 10 -3 6 -1 10 5
10 6 0 9 4 6 9 -3 5 1 12 10 15 12 5 14 9 5 20 -8 10 -4 18 19 36 16 12 27 27
24 31 -3 5 1 9 8 9 9 0 9 3 -2 10 -11 7 -11 10 -2 10 7 0 10 5 6 11 -3 6 0 15
7 20 12 7 11 9 -1 9 -13 0 -13 1 0 10 13 9 13 11 0 20 -8 5 -10 10 -4 10 9 0
11 31 4 50 -1 3 -2 8 -1 13 0 4 -4 6 -11 5 -7 -2 -12 2 -13 7 0 20 -50 60 -70
56 -11 -2 -22 -6 -25 -10 -11 -13 -69 -39 -67 -29 1 6 -6 12 -16 13 -10 2 -14
-1 -10 -7 4 -7 -2 -9 -15 -6 -13 4 -22 1 -22 -5 0 -6 -3 -7 -7 -4 -3 4 -12 2
-20 -4 -10 -9 -13 -8 -13 0 0 7 -5 9 -10 6 -6 -4 -8 -11 -5 -16 6 -9 -16 -4
-51 13 -15 7 -21 18 -19 34 1 13 -2 24 -7 24 -5 0 -6 5 -3 11 4 5 8 21 10 35
2 21 0 22 -13 12 -10 -8 -9 -3 3 13 13 18 22 23 27 15 5 -7 8 -3 8 9 0 12 3
16 8 9 13 -20 36 -22 65 -5 15 8 25 21 23 28 -3 7 1 13 8 13 8 0 17 8 20 17 6
15 8 15 17 3 6 -11 8 -5 4 18 -3 19 -2 31 3 28 4 -3 8 12 9 32 0 44 11 74 24
66 5 -3 9 -2 9 3 0 4 15 8 33 7 42 0 87 15 87 29 0 7 5 5 10 -3 8 -13 10 -12
10 3 0 9 6 17 13 17 9 0 9 2 -1 9 -10 6 -10 10 3 21 12 10 13 16 4 26 -9 11
-8 14 2 14 11 1 11 3 -1 13 -9 7 -15 19 -15 27 0 8 -4 18 -10 22 -6 5 -5 8 3
8 10 0 9 4 -2 16 -9 8 -14 20 -11 25 4 5 1 9 -4 9 -6 0 -20 9 -31 20 -11 11
-15 20 -9 20 8 0 7 6 -2 17 -12 15 -12 16 1 8 13 -7 13 -6 2 7 -9 11 -9 18 -3
23 7 4 5 14 -5 30 -9 13 -13 29 -9 35 3 5 2 10 -3 10 -16 0 -52 37 -44 45 4 5
-1 5 -10 2 -10 -4 -18 -2 -18 4 0 15 -26 39 -34 32 -3 -4 -6 1 -6 9 0 9 -10
18 -21 21 -17 4 -20 11 -16 28 3 12 1 31 -5 42 -7 14 -7 17 1 13 6 -4 11 -2
11 3 0 6 -4 11 -10 11 -5 0 -10 5 -10 11 0 5 6 7 13 4 6 -4 4 0 -5 8 -10 8
-18 22 -18 32 0 11 -5 15 -15 11 -8 -3 -14 -2 -14 2 3 19 -3 33 -22 51 -13 11
-18 24 -14 32 5 7 4 10 -2 6 -6 -4 -14 4 -17 18 -4 14 -12 25 -19 25 -8 0 -7
4 3 10 11 7 11 10 2 10 -7 0 -10 5 -7 10 3 6 1 10 -4 10 -6 0 -11 12 -11 26 0
16 -5 24 -12 22 -16 -6 -64 42 -60 59 2 7 -4 13 -13 13 -8 0 -15 4 -15 10 0 5
-3 9 -7 9 -27 -4 -43 3 -43 20 0 11 -5 23 -10 26 -6 4 -8 11 -5 16 4 5 1 9 -4
9 -6 0 -11 7 -11 15 0 8 -5 15 -11 15 -6 0 -9 7 -6 15 4 8 2 17 -4 20 -5 4 -7
11 -4 16 4 5 1 9 -5 9 -6 0 -8 5 -5 10 3 6 1 10 -5 10 -6 0 -9 4 -6 9 3 5 -8
14 -24 21 -16 7 -27 17 -23 23 3 5 1 7 -5 3 -6 -3 -13 -2 -16 3 -3 5 -16 7
-28 3 -16 -4 -19 -2 -13 9 7 12 6 12 -7 1 -13 -10 -17 -10 -20 -1 -3 10 -10 9
-27 -3 -13 -9 -30 -14 -37 -11 -8 3 -14 0 -14 -7 0 -6 -4 -9 -9 -6 -4 3 -13
-5 -19 -19 -9 -20 -8 -24 6 -28 15 -4 15 -5 -1 -6 -10 0 -15 -5 -12 -11 3 -5
-1 -10 -9 -10 -10 0 -13 -6 -9 -17 5 -15 3 -15 -11 2 -10 11 -15 14 -11 8 7
-15 -11 -18 -20 -3 -4 7 -14 6 -28 -2 -20 -10 -21 -10 -8 6 12 14 12 16 -3 10
-9 -3 -16 -10 -16 -16 0 -5 -4 -7 -9 -4 -13 8 -42 -4 -35 -15 3 -5 -2 -6 -10
-3 -9 3 -16 10 -16 15 0 5 -3 8 -7 8 -22 -4 -33 2 -27 14 5 7 0 6 -11 -3 -11
-9 -16 -10 -11 -2 9 15 7 15 -33 1 -28 -10 -35 -21 -34 -56 1 -7 -2 -13 -6
-14 -3 0 -14 -2 -24 -4 -13 -2 -15 0 -8 9 8 9 3 12 -17 12 -19 -1 -30 6 -37
22 -5 12 -13 22 -18 22 -4 0 -2 6 5 14 7 8 16 12 21 9 4 -2 7 1 7 6 0 6 -5 11
-11 11 -5 0 -8 4 -4 9 3 5 -2 17 -11 25 -8 9 -20 14 -25 11 -5 -4 -9 -1 -9 4
0 6 -8 11 -19 11 -20 0 -41 20 -45 42 -1 7 -6 19 -10 27 -6 9 -5 12 1 8 6 -4
14 0 17 9 3 8 10 12 16 9 5 -3 7 0 4 8 -3 9 3 17 16 20 14 3 19 10 15 17 -6 9
-2 9 14 1 12 -7 21 -8 20 -4 -3 20 2 34 11 28 7 -4 8 3 4 22 -8 31 -28 55 -38
46 -3 -4 -6 1 -6 10 0 11 -7 15 -21 12 -17 -4 -19 -2 -9 10 10 12 9 15 -4 15
-9 0 -19 7 -23 16 -5 13 -7 13 -14 2 -5 -7 -9 -8 -9 -2 0 6 -13 9 -30 6 -24
-3 -30 -1 -30 14 0 11 -3 15 -8 9 -4 -6 -16 -11 -27 -11 -11 0 -19 -5 -18 -12
2 -8 -4 -9 -22 -2 -14 5 -25 6 -25 1 0 -4 -11 -7 -26 -5 -22 2 -23 0 -12 -14
10 -13 11 -14 0 -8 -7 4 -19 2 -27 -4 -12 -10 -15 -10 -15 0 0 8 -3 11 -6 7
-7 -7 -54 38 -54 53 0 5 -9 10 -21 10 -11 0 -18 4 -15 8 2 4 -7 9 -20 10 -14
1 -23 -2 -20 -7 8 -12 -27 -8 -36 4 -4 6 -8 2 -8 -7z m214 -159 c-3 -5 0 -8 7
-7 8 2 15 -12 19 -39 3 -23 3 -40 -1 -37 -4 2 -10 0 -14 -6 -3 -5 -1 -10 6
-10 8 0 8 -4 -1 -15 -7 -8 -8 -15 -3 -15 5 0 10 -7 10 -15 0 -8 -4 -12 -9 -9
-4 3 -8 -2 -8 -10 0 -9 -5 -16 -11 -16 -5 0 -7 6 -3 13 4 6 -2 4 -13 -6 -17
-15 -22 -15 -31 -4 -7 8 -9 17 -5 20 3 4 0 7 -7 7 -9 0 -7 5 6 16 10 8 13 12
5 8 -10 -5 -13 -2 -9 12 3 11 -1 25 -9 33 -11 10 -11 16 -2 27 10 12 9 13 -7
8 -18 -7 -18 -6 1 13 11 12 25 20 30 19 6 0 9 5 7 13 -3 12 -1 12 14 0 16 -12
17 -12 11 3 -4 12 -2 15 8 11 8 -3 12 -9 9 -14z m896 -603 c0 -6 -5 -4 -10 4
-9 13 -10 13 -10 0 0 -13 -2 -13 -9 0 -6 8 -7 18 -4 23 6 10 33 -11 33 -27z"/>
<path d="M1868 3433 c7 -3 16 -2 19 1 4 3 -2 6 -13 5 -11 0 -14 -3 -6 -6z"/>
</g>
</svg>
